<mxfile host="Electron" modified="2023-12-06T06:27:29.709Z" agent="Mozilla/5.0 (Windows NT 10.0; Win64; x64) AppleWebKit/537.36 (KHTML, like Gecko) draw.io/22.1.2 Chrome/114.0.5735.289 Electron/25.9.4 Safari/537.36" etag="kxG2mL2lm6Ldum1jChTa" version="22.1.2" type="device" pages="2">
  <diagram name="领域分层设计" id="Hy6BnhkVsz4FPQlnWVc1">
    <mxGraphModel dx="1418" dy="820" grid="1" gridSize="10" guides="1" tooltips="1" connect="1" arrows="1" fold="1" page="1" pageScale="1" pageWidth="1200" pageHeight="1600" math="0" shadow="0">
      <root>
        <mxCell id="V9mmQ1vK7hY9In2icBoG-0" />
        <mxCell id="V9mmQ1vK7hY9In2icBoG-1" parent="V9mmQ1vK7hY9In2icBoG-0" />
        <mxCell id="V9mmQ1vK7hY9In2icBoG-2" value="" style="rounded=1;whiteSpace=wrap;html=1;fillColor=#f5f5f5;fontColor=#333333;strokeColor=#666666;dashed=1;absoluteArcSize=1;" parent="V9mmQ1vK7hY9In2icBoG-1" vertex="1">
          <mxGeometry x="280" y="550" width="760" height="100" as="geometry" />
        </mxCell>
        <mxCell id="V9mmQ1vK7hY9In2icBoG-3" value="" style="rounded=1;whiteSpace=wrap;html=1;fillColor=#f9f7ed;strokeColor=#36393d;dashed=1;absoluteArcSize=1;" parent="V9mmQ1vK7hY9In2icBoG-1" vertex="1">
          <mxGeometry x="280" y="370" width="760" height="160" as="geometry" />
        </mxCell>
        <mxCell id="V9mmQ1vK7hY9In2icBoG-4" value="" style="rounded=1;whiteSpace=wrap;html=1;fillColor=#fff2cc;strokeColor=#d6b656;dashed=1;absoluteArcSize=1;" parent="V9mmQ1vK7hY9In2icBoG-1" vertex="1">
          <mxGeometry x="280" y="250" width="760" height="100" as="geometry" />
        </mxCell>
        <mxCell id="V9mmQ1vK7hY9In2icBoG-5" value="核心域" style="text;html=1;strokeColor=none;fillColor=none;align=center;verticalAlign=middle;whiteSpace=wrap;rounded=0;dashed=1;" parent="V9mmQ1vK7hY9In2icBoG-1" vertex="1">
          <mxGeometry x="300" y="285" width="10" height="30" as="geometry" />
        </mxCell>
        <mxCell id="V9mmQ1vK7hY9In2icBoG-9" value="" style="rounded=1;whiteSpace=wrap;html=1;fillColor=#ffe6cc;strokeColor=#d79b00;dashed=1;absoluteArcSize=1;" parent="V9mmQ1vK7hY9In2icBoG-1" vertex="1">
          <mxGeometry x="280" y="130" width="760" height="100" as="geometry" />
        </mxCell>
        <mxCell id="V9mmQ1vK7hY9In2icBoG-11" value="基础域" style="text;html=1;strokeColor=none;fillColor=none;align=center;verticalAlign=middle;whiteSpace=wrap;rounded=0;" parent="V9mmQ1vK7hY9In2icBoG-1" vertex="1">
          <mxGeometry x="300" y="585" width="10" height="30" as="geometry" />
        </mxCell>
        <mxCell id="V9mmQ1vK7hY9In2icBoG-12" value="Asp.Net Core" style="rounded=1;whiteSpace=wrap;html=1;fillColor=#dae8fc;strokeColor=#6c8ebf;" parent="V9mmQ1vK7hY9In2icBoG-1" vertex="1">
          <mxGeometry x="330" y="580" width="120" height="40" as="geometry" />
        </mxCell>
        <mxCell id="V9mmQ1vK7hY9In2icBoG-13" value="Suyaa" style="rounded=1;whiteSpace=wrap;html=1;fillColor=#dae8fc;strokeColor=#6c8ebf;" parent="V9mmQ1vK7hY9In2icBoG-1" vertex="1">
          <mxGeometry x="470" y="580" width="120" height="40" as="geometry" />
        </mxCell>
        <mxCell id="V9mmQ1vK7hY9In2icBoG-15" value="IServiceCollection&lt;br&gt;容器" style="rounded=1;whiteSpace=wrap;html=1;fillColor=#dae8fc;strokeColor=#6c8ebf;" parent="V9mmQ1vK7hY9In2icBoG-1" vertex="1">
          <mxGeometry x="610" y="580" width="120" height="40" as="geometry" />
        </mxCell>
        <mxCell id="V9mmQ1vK7hY9In2icBoG-16" value="通用域" style="text;html=1;strokeColor=none;fillColor=none;align=center;verticalAlign=middle;whiteSpace=wrap;rounded=0;" parent="V9mmQ1vK7hY9In2icBoG-1" vertex="1">
          <mxGeometry x="300" y="435" width="10" height="30" as="geometry" />
        </mxCell>
        <mxCell id="V9mmQ1vK7hY9In2icBoG-19" value="模块化" style="rounded=1;whiteSpace=wrap;html=1;fillColor=#dae8fc;strokeColor=#6c8ebf;" parent="V9mmQ1vK7hY9In2icBoG-1" vertex="1">
          <mxGeometry x="330" y="400" width="120" height="40" as="geometry" />
        </mxCell>
        <mxCell id="V9mmQ1vK7hY9In2icBoG-20" value="DependencyManager&lt;br&gt;容器" style="rounded=1;whiteSpace=wrap;html=1;fillColor=#dae8fc;strokeColor=#6c8ebf;" parent="V9mmQ1vK7hY9In2icBoG-1" vertex="1">
          <mxGeometry x="470" y="400" width="120" height="40" as="geometry" />
        </mxCell>
        <mxCell id="V9mmQ1vK7hY9In2icBoG-23" value="DomainServiceCore" style="rounded=1;whiteSpace=wrap;html=1;fillColor=#dae8fc;strokeColor=#6c8ebf;" parent="V9mmQ1vK7hY9In2icBoG-1" vertex="1">
          <mxGeometry x="330" y="280" width="120" height="40" as="geometry" />
        </mxCell>
        <mxCell id="V9mmQ1vK7hY9In2icBoG-24" value="CoreStartup" style="rounded=1;whiteSpace=wrap;html=1;fillColor=#dae8fc;strokeColor=#6c8ebf;" parent="V9mmQ1vK7hY9In2icBoG-1" vertex="1">
          <mxGeometry x="470" y="280" width="120" height="40" as="geometry" />
        </mxCell>
        <mxCell id="V9mmQ1vK7hY9In2icBoG-31" value="应用域" style="text;html=1;strokeColor=none;fillColor=none;align=center;verticalAlign=middle;whiteSpace=wrap;rounded=0;dashed=1;" parent="V9mmQ1vK7hY9In2icBoG-1" vertex="1">
          <mxGeometry x="300" y="165" width="10" height="30" as="geometry" />
        </mxCell>
        <mxCell id="V9mmQ1vK7hY9In2icBoG-32" value="DomainServiceApp" style="rounded=1;whiteSpace=wrap;html=1;fillColor=#dae8fc;strokeColor=#6c8ebf;" parent="V9mmQ1vK7hY9In2icBoG-1" vertex="1">
          <mxGeometry x="330" y="160" width="120" height="40" as="geometry" />
        </mxCell>
        <mxCell id="V9mmQ1vK7hY9In2icBoG-33" value="FeatureProviders" style="rounded=1;whiteSpace=wrap;html=1;fillColor=#dae8fc;strokeColor=#6c8ebf;" parent="V9mmQ1vK7hY9In2icBoG-1" vertex="1">
          <mxGeometry x="610" y="160" width="120" height="40" as="geometry" />
        </mxCell>
        <mxCell id="uSnXEbYgKF9Yk1e_2j1_-0" value="ModelConventions" style="rounded=1;whiteSpace=wrap;html=1;fillColor=#dae8fc;strokeColor=#6c8ebf;" parent="V9mmQ1vK7hY9In2icBoG-1" vertex="1">
          <mxGeometry x="750" y="160" width="120" height="40" as="geometry" />
        </mxCell>
        <mxCell id="L4d0TJpUPIp5hEUANSDc-0" value="" style="rounded=1;whiteSpace=wrap;html=1;fillColor=#d5e8d4;strokeColor=#82b366;dashed=1;absoluteArcSize=1;" parent="V9mmQ1vK7hY9In2icBoG-1" vertex="1">
          <mxGeometry x="1060" y="130" width="320" height="520" as="geometry" />
        </mxCell>
        <mxCell id="L4d0TJpUPIp5hEUANSDc-1" value="扩展" style="text;html=1;strokeColor=none;fillColor=none;align=center;verticalAlign=middle;whiteSpace=wrap;rounded=0;dashed=1;" parent="V9mmQ1vK7hY9In2icBoG-1" vertex="1">
          <mxGeometry x="1200" y="135" width="40" height="30" as="geometry" />
        </mxCell>
        <mxCell id="L4d0TJpUPIp5hEUANSDc-3" value="Startup" style="rounded=1;whiteSpace=wrap;html=1;fillColor=#dae8fc;strokeColor=#6c8ebf;" parent="V9mmQ1vK7hY9In2icBoG-1" vertex="1">
          <mxGeometry x="750" y="580" width="120" height="40" as="geometry" />
        </mxCell>
        <mxCell id="L4d0TJpUPIp5hEUANSDc-4" value="CommonStartup" style="rounded=1;whiteSpace=wrap;html=1;fillColor=#dae8fc;strokeColor=#6c8ebf;" parent="V9mmQ1vK7hY9In2icBoG-1" vertex="1">
          <mxGeometry x="610" y="400" width="120" height="40" as="geometry" />
        </mxCell>
        <mxCell id="L4d0TJpUPIp5hEUANSDc-5" value="数据库" style="rounded=1;whiteSpace=wrap;html=1;fillColor=#dae8fc;strokeColor=#6c8ebf;" parent="V9mmQ1vK7hY9In2icBoG-1" vertex="1">
          <mxGeometry x="1090" y="170" width="120" height="40" as="geometry" />
        </mxCell>
        <mxCell id="L4d0TJpUPIp5hEUANSDc-6" value="AutoMapper" style="rounded=1;whiteSpace=wrap;html=1;fillColor=#dae8fc;strokeColor=#6c8ebf;" parent="V9mmQ1vK7hY9In2icBoG-1" vertex="1">
          <mxGeometry x="1090" y="230" width="120" height="40" as="geometry" />
        </mxCell>
        <mxCell id="L4d0TJpUPIp5hEUANSDc-7" value="Jwt" style="rounded=1;whiteSpace=wrap;html=1;fillColor=#dae8fc;strokeColor=#6c8ebf;" parent="V9mmQ1vK7hY9In2icBoG-1" vertex="1">
          <mxGeometry x="1090" y="290" width="120" height="40" as="geometry" />
        </mxCell>
        <mxCell id="L4d0TJpUPIp5hEUANSDc-8" value="多语言" style="rounded=1;whiteSpace=wrap;html=1;fillColor=#dae8fc;strokeColor=#6c8ebf;" parent="V9mmQ1vK7hY9In2icBoG-1" vertex="1">
          <mxGeometry x="1090" y="350" width="120" height="40" as="geometry" />
        </mxCell>
        <mxCell id="L4d0TJpUPIp5hEUANSDc-9" value="工作单元" style="rounded=1;whiteSpace=wrap;html=1;fillColor=#dae8fc;strokeColor=#6c8ebf;" parent="V9mmQ1vK7hY9In2icBoG-1" vertex="1">
          <mxGeometry x="1090" y="410" width="120" height="40" as="geometry" />
        </mxCell>
        <mxCell id="L4d0TJpUPIp5hEUANSDc-11" value="日志" style="rounded=1;whiteSpace=wrap;html=1;fillColor=#dae8fc;strokeColor=#6c8ebf;" parent="V9mmQ1vK7hY9In2icBoG-1" vertex="1">
          <mxGeometry x="1090" y="470" width="120" height="40" as="geometry" />
        </mxCell>
        <mxCell id="L4d0TJpUPIp5hEUANSDc-12" value="ApiResults" style="rounded=1;whiteSpace=wrap;html=1;fillColor=#dae8fc;strokeColor=#6c8ebf;" parent="V9mmQ1vK7hY9In2icBoG-1" vertex="1">
          <mxGeometry x="750" y="400" width="120" height="40" as="geometry" />
        </mxCell>
        <mxCell id="L4d0TJpUPIp5hEUANSDc-13" value="Configures" style="rounded=1;whiteSpace=wrap;html=1;fillColor=#dae8fc;strokeColor=#6c8ebf;" parent="V9mmQ1vK7hY9In2icBoG-1" vertex="1">
          <mxGeometry x="890" y="400" width="120" height="40" as="geometry" />
        </mxCell>
        <mxCell id="L4d0TJpUPIp5hEUANSDc-14" value="ActionFilters" style="rounded=1;whiteSpace=wrap;html=1;fillColor=#dae8fc;strokeColor=#6c8ebf;" parent="V9mmQ1vK7hY9In2icBoG-1" vertex="1">
          <mxGeometry x="330" y="460" width="120" height="40" as="geometry" />
        </mxCell>
        <mxCell id="L4d0TJpUPIp5hEUANSDc-16" value="Helpers" style="rounded=1;whiteSpace=wrap;html=1;fillColor=#dae8fc;strokeColor=#6c8ebf;" parent="V9mmQ1vK7hY9In2icBoG-1" vertex="1">
          <mxGeometry x="890" y="580" width="120" height="40" as="geometry" />
        </mxCell>
        <mxCell id="L4d0TJpUPIp5hEUANSDc-17" value="Attributes" style="rounded=1;whiteSpace=wrap;html=1;fillColor=#dae8fc;strokeColor=#6c8ebf;" parent="V9mmQ1vK7hY9In2icBoG-1" vertex="1">
          <mxGeometry x="470" y="460" width="120" height="40" as="geometry" />
        </mxCell>
        <mxCell id="L4d0TJpUPIp5hEUANSDc-18" value="AppStartup" style="rounded=1;whiteSpace=wrap;html=1;fillColor=#dae8fc;strokeColor=#6c8ebf;" parent="V9mmQ1vK7hY9In2icBoG-1" vertex="1">
          <mxGeometry x="470" y="160" width="120" height="40" as="geometry" />
        </mxCell>
        <mxCell id="L4d0TJpUPIp5hEUANSDc-20" value="Options" style="rounded=1;whiteSpace=wrap;html=1;fillColor=#dae8fc;strokeColor=#6c8ebf;" parent="V9mmQ1vK7hY9In2icBoG-1" vertex="1">
          <mxGeometry x="890" y="160" width="120" height="40" as="geometry" />
        </mxCell>
        <mxCell id="Z4LBJfg35VhPp80tYWdN-0" value="Redis" style="rounded=1;whiteSpace=wrap;html=1;fillColor=#dae8fc;strokeColor=#6c8ebf;" vertex="1" parent="V9mmQ1vK7hY9In2icBoG-1">
          <mxGeometry x="1090" y="530" width="120" height="40" as="geometry" />
        </mxCell>
        <mxCell id="Z4LBJfg35VhPp80tYWdN-1" value="RabbitMQ" style="rounded=1;whiteSpace=wrap;html=1;fillColor=#dae8fc;strokeColor=#6c8ebf;" vertex="1" parent="V9mmQ1vK7hY9In2icBoG-1">
          <mxGeometry x="1090" y="590" width="120" height="40" as="geometry" />
        </mxCell>
        <mxCell id="Z4LBJfg35VhPp80tYWdN-2" value="定时任务" style="rounded=1;whiteSpace=wrap;html=1;fillColor=#dae8fc;strokeColor=#6c8ebf;" vertex="1" parent="V9mmQ1vK7hY9In2icBoG-1">
          <mxGeometry x="1230" y="170" width="120" height="40" as="geometry" />
        </mxCell>
        <mxCell id="Z4LBJfg35VhPp80tYWdN-3" value="多线程支持" style="rounded=1;whiteSpace=wrap;html=1;fillColor=#dae8fc;strokeColor=#6c8ebf;" vertex="1" parent="V9mmQ1vK7hY9In2icBoG-1">
          <mxGeometry x="1230" y="230" width="120" height="40" as="geometry" />
        </mxCell>
      </root>
    </mxGraphModel>
  </diagram>
  <diagram id="xpbmNZcBWTrYJfgf311J" name="第 2 页">
    <mxGraphModel dx="1434" dy="836" grid="1" gridSize="10" guides="1" tooltips="1" connect="1" arrows="1" fold="1" page="1" pageScale="1" pageWidth="827" pageHeight="1169" math="0" shadow="0">
      <root>
        <mxCell id="0" />
        <mxCell id="1" parent="0" />
      </root>
    </mxGraphModel>
  </diagram>
</mxfile>
